<svg width="30" height="31" viewBox="0 0 30 31" fill="none" xmlns="http://www.w3.org/2000/svg">
<g clip-path="url(#clip0_19_621)">
<path d="M15.0001 0.931702C7.0471 0.931702 0.600098 7.3787 0.600098 15.3317C0.600098 23.2847 7.0471 29.7317 15.0001 29.7317C22.9531 29.7317 29.4001 23.2847 29.4001 15.3317C29.4001 7.3787 22.9531 0.931702 15.0001 0.931702ZM18.4111 10.8827H16.2466C15.9901 10.8827 15.7051 11.2202 15.7051 11.6687V13.2317H18.4126L18.0031 15.4607H15.7051V22.1522H13.1506V15.4607H10.8331V13.2317H13.1506V11.9207C13.1506 10.0397 14.4556 8.5112 16.2466 8.5112H18.4111V10.8827V10.8827Z" fill="white"/>
</g>
<defs>
<clipPath id="clip0_19_621">
<rect width="30" height="30" fill="white" transform="translate(0 0.331604)"/>
</clipPath>
</defs>
</svg>
