<svg width="30" height="31" viewBox="0 0 30 31" fill="none" xmlns="http://www.w3.org/2000/svg">
<g clip-path="url(#clip0_19_627)">
<path d="M19.5001 15.3317C19.5001 16.5252 19.026 17.6698 18.1821 18.5137C17.3382 19.3576 16.1936 19.8317 15.0001 19.8317C13.8066 19.8317 12.662 19.3576 11.8181 18.5137C10.9742 17.6698 10.5001 16.5252 10.5001 15.3317C10.5001 15.0752 10.5271 14.8247 10.5736 14.5817H9.0001V20.5772C9.0001 20.9942 9.3376 21.3317 9.7546 21.3317H20.2471C20.4469 21.3313 20.6385 21.2516 20.7796 21.1102C20.9208 20.9687 21.0001 20.777 21.0001 20.5772V14.5817H19.4266C19.4731 14.8247 19.5001 15.0752 19.5001 15.3317V15.3317ZM15.0001 18.3317C15.3942 18.3316 15.7844 18.2539 16.1484 18.103C16.5124 17.9521 16.8432 17.731 17.1217 17.4523C17.4003 17.1736 17.6213 16.8427 17.772 16.4786C17.9227 16.1145 18.0002 15.7243 18.0001 15.3302C18 14.9361 17.9223 14.546 17.7714 14.1819C17.6205 13.8179 17.3994 13.4871 17.1207 13.2086C16.842 12.93 16.5111 12.709 16.147 12.5583C15.7829 12.4076 15.3927 12.3301 14.9986 12.3302C14.2028 12.3304 13.4396 12.6467 12.877 13.2096C12.3144 13.7725 11.9984 14.5359 11.9986 15.3317C11.9988 16.1276 12.3151 16.8907 12.878 17.4533C13.4409 18.0159 14.2043 18.3319 15.0001 18.3317V18.3317ZM18.6001 12.1817H20.3986C20.5181 12.1817 20.6327 12.1343 20.7173 12.05C20.802 11.9656 20.8497 11.8512 20.8501 11.7317V9.9332C20.8501 9.81346 20.8025 9.69862 20.7179 9.61394C20.6332 9.52927 20.5183 9.4817 20.3986 9.4817H18.6001C18.4804 9.4817 18.3655 9.52927 18.2808 9.61394C18.1962 9.69862 18.1486 9.81346 18.1486 9.9332V11.7317C18.1501 11.9792 18.3526 12.1817 18.6001 12.1817V12.1817ZM15.0001 0.931702C11.181 0.931702 7.51828 2.44884 4.81776 5.14936C2.11724 7.84989 0.600098 11.5126 0.600098 15.3317C0.600098 19.1508 2.11724 22.8135 4.81776 25.514C7.51828 28.2146 11.181 29.7317 15.0001 29.7317C16.8911 29.7317 18.7637 29.3592 20.5107 28.6356C22.2578 27.9119 23.8453 26.8512 25.1824 25.514C26.5196 24.1769 27.5803 22.5894 28.304 20.8423C29.0276 19.0953 29.4001 17.2227 29.4001 15.3317C29.4001 13.4407 29.0276 11.5681 28.304 9.82106C27.5803 8.07397 26.5196 6.48653 25.1824 5.14936C23.8453 3.8122 22.2578 2.7515 20.5107 2.02784C18.7637 1.30417 16.8911 0.931702 15.0001 0.931702V0.931702ZM22.5001 21.1652C22.5001 22.0817 21.7501 22.8317 20.8336 22.8317H9.1666C8.2501 22.8317 7.5001 22.0817 7.5001 21.1652V9.4982C7.5001 8.5817 8.2501 7.8317 9.1666 7.8317H20.8336C21.7501 7.8317 22.5001 8.5817 22.5001 9.4982V21.1652V21.1652Z" fill="white"/>
</g>
<defs>
<clipPath id="clip0_19_627">
<rect width="30" height="30" fill="white" transform="translate(0 0.331604)"/>
</clipPath>
</defs>
</svg>
