<svg width="153" height="47" viewBox="0 0 153 47" fill="none" xmlns="http://www.w3.org/2000/svg">
<path fill-rule="evenodd" clip-rule="evenodd" d="M0 10.3316C0 4.80876 4.47715 0.331604 10 0.331604H36C41.5228 0.331604 46 4.80876 46 10.3316V36.3316C46 41.8545 41.5228 46.3316 36 46.3316H10C4.47715 46.3316 0 41.8545 0 36.3316V10.3316Z" fill="#169C50"/>
<path fill-rule="evenodd" clip-rule="evenodd" d="M35.8169 27.2623V19.0458C37.0706 18.7783 38.0277 17.7632 38.2216 16.4963C38.4154 15.2293 37.8053 13.9745 36.689 13.3446C35.5727 12.7145 34.1832 12.8408 33.1987 13.6615L26.0422 9.52934C26.0529 9.42097 26.0594 9.31302 26.0594 9.20221C26.0594 7.49891 24.6786 6.1181 22.9752 6.1181C21.272 6.1181 19.8911 7.4989 19.8911 9.20221C19.8916 9.33285 19.901 9.46335 19.919 9.59272L12.8295 13.6863C11.8547 12.8528 10.4659 12.7098 9.34185 13.327C8.2178 13.9444 7.59325 15.1931 7.77352 16.4629C7.954 17.7325 8.90153 18.7579 10.153 19.0378V27.2702C8.90395 27.5489 7.95663 28.5704 7.77277 29.837C7.58907 31.1035 8.20664 32.3521 9.32516 32.9744C10.4434 33.5968 11.8301 33.4636 12.8095 32.6397L20.0653 36.8297L20.118 36.7372C20.432 38.144 21.0553 39.2642 21.8347 39.8265V40.3872H22.4604V40.1406C22.627 40.1928 22.8006 40.2196 22.9752 40.2203C23.2279 40.2186 23.4773 40.1642 23.7077 40.0608V40.388H24.3347V39.6503C25.1046 38.8691 25.6223 37.8747 25.8207 36.7958L33.1238 32.5792C34.0898 33.4399 35.4906 33.6058 36.631 32.9946C37.7714 32.3835 38.4088 31.1252 38.227 29.8442C38.0452 28.5632 37.0823 27.532 35.8169 27.2623ZM35.1589 14.2382C36.1682 14.2378 36.9865 15.0555 36.9869 16.0647C36.9873 17.0739 36.1694 17.8923 35.1602 17.8925C34.151 17.8928 33.3328 17.075 33.3327 16.0657C33.3327 15.0568 34.1501 14.2388 35.1589 14.2382ZM25.6082 10.8041L32.3861 14.7168C32.0419 15.4414 31.9964 16.2722 32.2593 17.0301L27.6736 19.7185C26.7606 18.3256 25.2764 17.41 23.622 17.219V12.2177C24.4492 12.0387 25.1668 11.5277 25.6064 10.8046L25.6082 10.8041ZM22.9607 7.40973C23.97 7.40927 24.7885 8.22699 24.7888 9.23623C24.7891 10.2454 23.9712 11.0637 22.962 11.064C21.953 11.0643 21.1347 10.2465 21.1345 9.23725C21.1345 8.22959 21.9507 7.41185 22.9589 7.41011L22.9607 7.40973ZM20.3758 10.8541C20.813 11.5428 21.5054 12.03 22.3014 12.209V17.2238C20.6401 17.4247 19.1552 18.3562 18.2513 19.7643L13.7142 17.1143C14.0078 16.3469 13.9783 15.4932 13.6325 14.7479L20.3758 10.8541ZM8.98706 16.0653C8.98626 15.0559 9.80417 14.237 10.8137 14.2366C11.8232 14.2361 12.6419 15.0542 12.6421 16.0638C12.6421 17.0737 11.8237 17.8919 10.8141 17.8918C9.80503 17.8924 8.98653 17.0752 8.98529 16.0661L8.98706 16.0653ZM10.8146 32.1405C9.80496 32.1412 8.9863 31.323 8.98619 30.3135C8.98619 29.3038 9.80485 28.4856 10.8144 28.4861C11.8238 28.4867 12.6416 29.3058 12.6405 30.3153C12.6397 31.324 11.8217 32.1413 10.8129 32.1413L10.8146 32.1405ZM11.4745 27.2615V19.0458C12.0499 18.9233 12.5782 18.638 12.996 18.2237L17.6734 20.9543C17.1584 22.4135 17.2749 24.0213 17.995 25.3909L13.1382 28.2374C12.7015 27.7427 12.1177 27.4009 11.4725 27.2623L11.4745 27.2615ZM26.0453 35.1416C26.0534 34.9823 26.0584 34.8229 26.0584 34.6599C26.0584 32.0074 25.0279 29.7917 23.6498 29.2374V24.5438C24.4985 24.2398 25.0053 23.3696 24.8512 22.4817C24.697 21.5936 23.9263 20.9452 23.025 20.9452C22.1238 20.9452 21.3531 21.5936 21.1988 22.4817C21.0446 23.3696 21.5516 24.2398 22.4002 24.5438V29.1995C20.9735 29.6865 19.8938 31.9444 19.8938 34.6591C19.8938 34.8464 19.9007 35.0313 19.9098 35.2135L13.6213 31.5814C13.8137 31.1736 13.9138 30.7284 13.9142 30.2775C13.9138 29.9758 13.8693 29.6756 13.7824 29.3868L18.739 26.482C19.5797 27.449 20.7256 28.0995 21.9869 28.3256V27.0157C19.8573 26.5169 18.4328 24.5098 18.6649 22.335C18.8969 20.1601 20.7129 18.4988 22.8998 18.4606C25.0866 18.4224 26.9595 20.0194 27.2673 22.1848C27.5752 24.3503 26.2214 26.4059 24.1105 26.9786V28.3049C25.3049 28.0576 26.3862 27.4281 27.1906 26.5116L32.2084 29.4415C32.0138 30.1245 32.0623 30.8539 32.3454 31.5053L26.0453 35.1416ZM32.8312 28.2765L27.9431 25.422C28.6853 24.0287 28.8012 22.3858 28.262 20.9021L32.9456 18.1572C33.3652 18.5981 33.9061 18.9044 34.4999 19.0374V27.2699C33.8483 27.4151 33.2619 27.7686 32.8293 28.2769L32.8312 28.2765ZM35.1595 32.1421C34.15 32.1428 33.3313 31.3249 33.331 30.3156C33.3306 29.3063 34.1487 28.4878 35.1581 28.4877C36.1675 28.4877 36.9856 29.3061 36.9854 30.3154C36.9845 31.3236 36.1677 32.1414 35.1595 32.1421Z" fill="white"/>
<path d="M53.903 35.5559L56.7415 28.1722H57.7206L60.5481 35.5559H59.569L58.8648 33.6572H55.5863L54.8711 35.5559H53.903ZM55.8613 32.94H58.5898L57.2255 29.2903L55.8613 32.94Z" fill="white"/>
<path d="M66.8601 35.6825C66.2073 35.6825 65.6645 35.5242 65.2318 35.2078C64.799 34.8914 64.546 34.4624 64.4726 33.9209H65.4188C65.4775 34.1952 65.6279 34.4343 65.8699 34.6382C66.1193 34.8351 66.453 34.9336 66.8711 34.9336C67.2598 34.9336 67.5459 34.8562 67.7292 34.7015C67.9126 34.5398 68.0043 34.3499 68.0043 34.1319C68.0043 33.8154 67.8833 33.6045 67.6412 33.499C67.4065 33.3935 67.0728 33.2986 66.64 33.2142C66.3467 33.158 66.0533 33.0771 65.7599 32.9716C65.4665 32.8661 65.2208 32.7184 65.0228 32.5286C64.8247 32.3317 64.7257 32.075 64.7257 31.7586C64.7257 31.3015 64.9017 30.9288 65.2538 30.6405C65.6132 30.3451 66.0973 30.1974 66.706 30.1974C67.2855 30.1974 67.7586 30.3381 68.1253 30.6194C68.4994 30.8936 68.7157 31.2874 68.7744 31.8008H67.8613C67.8246 31.5335 67.7036 31.3261 67.4982 31.1784C67.3001 31.0237 67.0324 30.9464 66.695 30.9464C66.365 30.9464 66.1083 31.0132 65.9249 31.1468C65.7489 31.2804 65.6609 31.4562 65.6609 31.6742C65.6609 31.8851 65.7745 32.0504 66.0019 32.1699C66.2366 32.2895 66.552 32.3915 66.9481 32.4758C67.2855 32.5462 67.6045 32.6341 67.9053 32.7395C68.2133 32.838 68.4627 32.9892 68.6534 33.1931C68.8514 33.39 68.9504 33.6783 68.9504 34.0581C68.9578 34.5292 68.7707 34.9195 68.3893 35.2289C68.0153 35.5313 67.5055 35.6825 66.8601 35.6825Z" fill="white"/>
<path d="M70.9418 29.1637C70.7584 29.1637 70.6044 29.1075 70.4797 28.995C70.3624 28.8754 70.3037 28.7277 70.3037 28.5519C70.3037 28.3832 70.3624 28.2425 70.4797 28.13C70.6044 28.0175 70.7584 27.9612 70.9418 27.9612C71.1178 27.9612 71.2682 28.0175 71.3929 28.13C71.5176 28.2425 71.5799 28.3832 71.5799 28.5519C71.5799 28.7277 71.5176 28.8754 71.3929 28.995C71.2682 29.1075 71.1178 29.1637 70.9418 29.1637ZM70.4797 35.5559V30.324H71.4039V35.5559H70.4797Z" fill="white"/>
<path d="M73.123 35.5559V30.324H73.9592L74.0252 31.0835C74.2012 30.8022 74.4359 30.5842 74.7293 30.4295C75.0227 30.2748 75.3528 30.1974 75.7195 30.1974C76.1522 30.1974 76.5226 30.2818 76.8307 30.4506C77.1461 30.6194 77.3881 30.876 77.5568 31.2206C77.7475 30.9042 78.0079 30.6545 78.3379 30.4717C78.6753 30.2889 79.0384 30.1974 79.4271 30.1974C80.0799 30.1974 80.6007 30.3873 80.9894 30.767C81.3782 31.1397 81.5725 31.7164 81.5725 32.4969V35.5559H80.6594V32.5919C80.6594 32.0504 80.5457 31.6425 80.3183 31.3683C80.0909 31.094 79.7645 30.9569 79.3391 30.9569C78.899 30.9569 78.5323 31.1222 78.2389 31.4527C77.9529 31.7761 77.8099 32.2403 77.8099 32.845V35.5559H76.8857V32.5919C76.8857 32.0504 76.772 31.6425 76.5446 31.3683C76.3173 31.094 75.9909 30.9569 75.5655 30.9569C75.1327 30.9569 74.7696 31.1222 74.4763 31.4527C74.1902 31.7761 74.0472 32.2403 74.0472 32.845V35.5559H73.123Z" fill="white"/>
<path d="M83.0746 37.8765V30.324H83.9108L83.9988 31.189C84.1748 30.9358 84.4242 30.7073 84.7469 30.5033C85.077 30.2994 85.4951 30.1974 86.0011 30.1974C86.5439 30.1974 87.017 30.317 87.4204 30.5561C87.8238 30.7952 88.1355 31.1222 88.3556 31.5371C88.5829 31.9519 88.6966 32.4231 88.6966 32.9505C88.6966 33.4779 88.5829 33.9491 88.3556 34.364C88.1355 34.7718 87.8201 35.0953 87.4094 35.3344C87.006 35.5664 86.5329 35.6825 85.9902 35.6825C85.5427 35.6825 85.143 35.5946 84.7909 35.4188C84.4462 35.243 84.1822 34.9968 83.9988 34.6804V37.8765H83.0746ZM85.8911 34.9125C86.2579 34.9125 86.5806 34.8316 86.8593 34.6698C87.138 34.5011 87.3581 34.269 87.5194 33.9737C87.6808 33.6783 87.7615 33.3338 87.7615 32.94C87.7615 32.5462 87.6808 32.2016 87.5194 31.9062C87.3581 31.6109 87.138 31.3823 86.8593 31.2206C86.5806 31.0518 86.2579 30.9675 85.8911 30.9675C85.5244 30.9675 85.2017 31.0518 84.923 31.2206C84.6442 31.3823 84.4242 31.6109 84.2628 31.9062C84.1015 32.2016 84.0208 32.5462 84.0208 32.94C84.0208 33.3338 84.1015 33.6783 84.2628 33.9737C84.4242 34.269 84.6442 34.5011 84.923 34.6698C85.2017 34.8316 85.5244 34.9125 85.8911 34.9125Z" fill="white"/>
<path d="M90.0931 35.5559V27.9612H91.0173V35.5559H90.0931Z" fill="white"/>
<path d="M95.0955 35.6825C94.5747 35.6825 94.1126 35.57 93.7092 35.3449C93.3058 35.1129 92.9868 34.7929 92.7521 34.385C92.5247 33.9772 92.411 33.4955 92.411 32.94C92.411 32.3915 92.5247 31.9133 92.7521 31.5054C92.9794 31.0905 93.2948 30.7706 93.6982 30.5455C94.109 30.3135 94.582 30.1974 95.1175 30.1974C95.6456 30.1974 96.1003 30.3135 96.4817 30.5455C96.8704 30.7706 97.1675 31.0694 97.3729 31.4421C97.5782 31.8148 97.6809 32.2157 97.6809 32.6446C97.6809 32.722 97.6773 32.7993 97.6699 32.8767C97.6699 32.954 97.6699 33.0419 97.6699 33.1404H93.3242C93.3462 33.5412 93.4415 33.8752 93.6102 34.1424C93.7862 34.4026 94.0026 34.5995 94.2593 34.7331C94.5234 34.8667 94.8021 34.9336 95.0955 34.9336C95.4769 34.9336 95.7959 34.8492 96.0526 34.6804C96.3093 34.5116 96.4964 34.2831 96.6137 33.9948H97.5269C97.3802 34.48 97.0978 34.8843 96.6797 35.2078C96.269 35.5242 95.7409 35.6825 95.0955 35.6825ZM95.0955 30.9464C94.6554 30.9464 94.263 31.0765 93.9183 31.3366C93.5809 31.5898 93.3865 31.9625 93.3352 32.4547H96.7678C96.7458 31.9836 96.5771 31.6144 96.2617 31.3472C95.9463 31.08 95.5575 30.9464 95.0955 30.9464Z" fill="white"/>
<path d="M102.038 35.5559V27.9612H102.962V31.2206C103.145 30.8971 103.405 30.6475 103.743 30.4717C104.08 30.2889 104.447 30.1974 104.843 30.1974C105.474 30.1974 105.98 30.3873 106.361 30.767C106.743 31.1397 106.933 31.7164 106.933 32.4969V35.5559H106.02V32.5919C106.02 31.5019 105.562 30.9569 104.645 30.9569C104.168 30.9569 103.769 31.1222 103.446 31.4527C103.123 31.7761 102.962 32.2403 102.962 32.845V35.5559H102.038Z" fill="white"/>
<path d="M109.005 29.1637C108.821 29.1637 108.667 29.1075 108.543 28.995C108.425 28.8754 108.367 28.7277 108.367 28.5519C108.367 28.3832 108.425 28.2425 108.543 28.13C108.667 28.0175 108.821 27.9612 109.005 27.9612C109.181 27.9612 109.331 28.0175 109.456 28.13C109.58 28.2425 109.643 28.3832 109.643 28.5519C109.643 28.7277 109.58 28.8754 109.456 28.995C109.331 29.1075 109.181 29.1637 109.005 29.1637ZM108.543 35.5559V30.324H109.467V35.5559H108.543Z" fill="white"/>
<path d="M111.186 35.5559V30.324H112.022L112.099 31.3261C112.268 30.9815 112.524 30.7073 112.869 30.5033C113.214 30.2994 113.639 30.1974 114.145 30.1974V31.1257H113.892C113.57 31.1257 113.273 31.1819 113.001 31.2944C112.73 31.3999 112.513 31.5828 112.352 31.843C112.191 32.1031 112.11 32.4618 112.11 32.9189V35.5559H111.186Z" fill="white"/>
<path d="M115.854 29.1637C115.67 29.1637 115.516 29.1075 115.392 28.995C115.274 28.8754 115.216 28.7277 115.216 28.5519C115.216 28.3832 115.274 28.2425 115.392 28.13C115.516 28.0175 115.67 27.9612 115.854 27.9612C116.03 27.9612 116.18 28.0175 116.305 28.13C116.43 28.2425 116.492 28.3832 116.492 28.5519C116.492 28.7277 116.43 28.8754 116.305 28.995C116.18 29.1075 116.03 29.1637 115.854 29.1637ZM115.392 35.5559V30.324H116.316V35.5559H115.392Z" fill="white"/>
<path d="M118.035 35.5559V30.324H118.871L118.926 31.2628C119.102 30.9323 119.355 30.6721 119.685 30.4822C120.015 30.2924 120.389 30.1974 120.808 30.1974C121.453 30.1974 121.966 30.3873 122.348 30.767C122.737 31.1397 122.931 31.7164 122.931 32.4969V35.5559H122.007V32.5919C122.007 31.5019 121.537 30.9569 120.599 30.9569C120.129 30.9569 119.737 31.1222 119.421 31.4527C119.113 31.7761 118.959 32.2403 118.959 32.845V35.5559H118.035Z" fill="white"/>
<path d="M126.597 33.9104C126.289 33.9104 126.007 33.8717 125.75 33.7944L125.2 34.2901C125.281 34.3464 125.38 34.3956 125.497 34.4378C125.622 34.473 125.798 34.5081 126.025 34.5433C126.253 34.5714 126.572 34.603 126.983 34.6382C127.716 34.6874 128.24 34.8492 128.556 35.1234C128.871 35.3977 129.029 35.7563 129.029 36.1993C129.029 36.5017 128.941 36.79 128.765 37.0643C128.596 37.3385 128.332 37.5636 127.973 37.7394C127.621 37.9152 127.166 38.0031 126.608 38.0031C126.117 38.0031 125.681 37.9398 125.299 37.8132C124.918 37.6936 124.621 37.5073 124.408 37.2541C124.195 37.008 124.089 36.6951 124.089 36.3154C124.089 36.1185 124.144 35.904 124.254 35.6719C124.364 35.4469 124.569 35.2324 124.87 35.0285C124.709 34.9652 124.569 34.8984 124.452 34.8281C124.342 34.7507 124.239 34.6663 124.144 34.5749V34.3323L125.079 33.4463C124.646 33.0947 124.43 32.6305 124.43 32.0539C124.43 31.7093 124.514 31.3964 124.683 31.1151C124.852 30.8338 125.098 30.6123 125.42 30.4506C125.743 30.2818 126.135 30.1974 126.597 30.1974C126.913 30.1974 127.199 30.2396 127.456 30.324H129.469V30.9886L128.446 31.0307C128.659 31.3261 128.765 31.6671 128.765 32.0539C128.765 32.3985 128.677 32.7114 128.501 32.9927C128.332 33.274 128.086 33.499 127.764 33.6678C127.448 33.8295 127.06 33.9104 126.597 33.9104ZM126.597 33.1826C126.986 33.1826 127.294 33.0876 127.522 32.8978C127.756 32.7009 127.874 32.4196 127.874 32.0539C127.874 31.6953 127.756 31.421 127.522 31.2312C127.294 31.0343 126.986 30.9358 126.597 30.9358C126.201 30.9358 125.886 31.0343 125.651 31.2312C125.424 31.421 125.31 31.6953 125.31 32.0539C125.31 32.4196 125.424 32.7009 125.651 32.8978C125.886 33.0876 126.201 33.1826 126.597 33.1826ZM124.991 36.231C124.991 36.5826 125.145 36.8428 125.453 37.0115C125.761 37.1873 126.146 37.2752 126.608 37.2752C127.063 37.2752 127.426 37.1803 127.698 36.9904C127.976 36.8006 128.116 36.5474 128.116 36.231C128.116 36.0059 128.02 35.809 127.83 35.6403C127.639 35.4785 127.287 35.3836 126.774 35.3555C126.37 35.3273 126.022 35.2922 125.728 35.25C125.428 35.4047 125.23 35.57 125.134 35.7458C125.039 35.9286 124.991 36.0903 124.991 36.231Z" fill="white"/>
<path d="M135.459 35.6825C135.004 35.6825 134.626 35.6086 134.325 35.461C134.025 35.3133 133.801 35.1164 133.654 34.8703C133.508 34.6241 133.434 34.3569 133.434 34.0686C133.434 33.5342 133.647 33.1228 134.072 32.8345C134.498 32.5462 135.077 32.402 135.811 32.402H137.285V32.3387C137.285 31.8816 137.16 31.5371 136.911 31.305C136.661 31.0659 136.328 30.9464 135.91 30.9464C135.55 30.9464 135.238 31.0343 134.974 31.2101C134.718 31.3788 134.556 31.6285 134.49 31.959H133.544C133.581 31.5792 133.713 31.2593 133.94 30.9991C134.175 30.7389 134.465 30.542 134.809 30.4084C135.154 30.2678 135.521 30.1974 135.91 30.1974C136.672 30.1974 137.245 30.3943 137.626 30.7881C138.015 31.1749 138.209 31.6918 138.209 32.3387V35.5559H137.384L137.329 34.6171C137.175 34.9125 136.947 35.1656 136.647 35.3766C136.353 35.5805 135.957 35.6825 135.459 35.6825ZM135.602 34.9336C135.954 34.9336 136.254 34.8457 136.504 34.6698C136.76 34.494 136.955 34.2655 137.087 33.9842C137.219 33.7029 137.285 33.4076 137.285 33.0982V33.0876H135.888C135.345 33.0876 134.96 33.179 134.732 33.3619C134.512 33.5377 134.402 33.7592 134.402 34.0264C134.402 34.3007 134.505 34.5222 134.71 34.6909C134.923 34.8527 135.22 34.9336 135.602 34.9336Z" fill="white"/>
<path d="M139.705 37.8765V30.324H140.542L140.63 31.189C140.806 30.9358 141.055 30.7073 141.378 30.5033C141.708 30.2994 142.126 30.1974 142.632 30.1974C143.175 30.1974 143.648 30.317 144.051 30.5561C144.455 30.7952 144.766 31.1222 144.986 31.5371C145.214 31.9519 145.327 32.4231 145.327 32.9505C145.327 33.4779 145.214 33.9491 144.986 34.364C144.766 34.7718 144.451 35.0953 144.04 35.3344C143.637 35.5664 143.164 35.6825 142.621 35.6825C142.174 35.6825 141.774 35.5946 141.422 35.4188C141.077 35.243 140.813 34.9968 140.63 34.6804V37.8765H139.705ZM142.522 34.9125C142.889 34.9125 143.211 34.8316 143.49 34.6698C143.769 34.5011 143.989 34.269 144.15 33.9737C144.312 33.6783 144.392 33.3338 144.392 32.94C144.392 32.5462 144.312 32.2016 144.15 31.9062C143.989 31.6109 143.769 31.3823 143.49 31.2206C143.211 31.0518 142.889 30.9675 142.522 30.9675C142.155 30.9675 141.833 31.0518 141.554 31.2206C141.275 31.3823 141.055 31.6109 140.894 31.9062C140.732 32.2016 140.652 32.5462 140.652 32.94C140.652 33.3338 140.732 33.6783 140.894 33.9737C141.055 34.269 141.275 34.5011 141.554 34.6698C141.833 34.8316 142.155 34.9125 142.522 34.9125Z" fill="white"/>
<path d="M146.724 37.8765V30.324H147.56L147.648 31.189C147.824 30.9358 148.074 30.7073 148.396 30.5033C148.726 30.2994 149.144 30.1974 149.65 30.1974C150.193 30.1974 150.666 30.317 151.07 30.5561C151.473 30.7952 151.785 31.1222 152.005 31.5371C152.232 31.9519 152.346 32.4231 152.346 32.9505C152.346 33.4779 152.232 33.9491 152.005 34.364C151.785 34.7718 151.469 35.0953 151.059 35.3344C150.655 35.5664 150.182 35.6825 149.639 35.6825C149.192 35.6825 148.792 35.5946 148.44 35.4188C148.096 35.243 147.831 34.9968 147.648 34.6804V37.8765H146.724ZM149.54 34.9125C149.907 34.9125 150.23 34.8316 150.509 34.6698C150.787 34.5011 151.007 34.269 151.169 33.9737C151.33 33.6783 151.411 33.3338 151.411 32.94C151.411 32.5462 151.33 32.2016 151.169 31.9062C151.007 31.6109 150.787 31.3823 150.509 31.2206C150.23 31.0518 149.907 30.9675 149.54 30.9675C149.174 30.9675 148.851 31.0518 148.572 31.2206C148.294 31.3823 148.074 31.6109 147.912 31.9062C147.751 32.2016 147.67 32.5462 147.67 32.94C147.67 33.3338 147.751 33.6783 147.912 33.9737C148.074 34.269 148.294 34.5011 148.572 34.6698C148.851 34.8316 149.174 34.9125 149.54 34.9125Z" fill="white"/>
<path d="M63.3334 9.5721H51.7393V12.8928H55.577V22.9313H59.4956V12.8928H63.3334V9.5721Z" fill="white"/>
<path d="M72.1436 12.6256L71.7599 13.4272C70.8711 12.721 69.7198 12.3203 68.4271 12.3203C65.0943 12.3203 62.7108 14.5913 62.7108 17.7784C62.7108 20.9846 65.0943 23.2748 68.4271 23.2748C69.6996 23.2748 70.8307 22.8931 71.7195 22.206L72.0426 22.9313H74.9513V12.6256H72.1436ZM68.932 20.1449C67.5181 20.1449 66.488 19.1334 66.488 17.7784C66.488 16.4425 67.5181 15.4501 68.932 15.4501C70.346 15.4501 71.3761 16.4425 71.3761 17.7784C71.3761 19.1334 70.346 20.1449 68.932 20.1449Z" fill="white"/>
<path d="M77.3425 11.347H81.059V8.3316H77.3425V11.347ZM77.3223 22.9313H81.0792V12.6256H77.3223V22.9313Z" fill="white"/>
<path d="M87.9213 19.7823L92.0418 13.2172V12.6256H83.0331V15.7746H86.8507L82.6696 22.416V22.9313H92.0822V19.7823H87.9213Z" fill="white"/>
<path d="M99.1682 23.2748C102.723 23.2748 105.288 20.9655 105.288 17.7784C105.288 14.5913 102.723 12.3012 99.1682 12.3012C95.6132 12.3012 93.0682 14.5913 93.0682 17.7784C93.0682 20.9655 95.6132 23.2748 99.1682 23.2748ZM99.1682 20.0877C97.8149 20.0877 96.8251 19.1525 96.8251 17.7975C96.8251 16.4234 97.8149 15.4883 99.1682 15.4883C100.542 15.4883 101.531 16.4425 101.531 17.7975C101.531 19.1525 100.542 20.0877 99.1682 20.0877Z" fill="white"/>
<path d="M106.887 22.9313H110.543V19.6487H106.887V22.9313Z" fill="white"/>
<path d="M112.789 11.347H116.506V8.3316H112.789V11.347ZM112.769 22.9313H116.526V12.6256H112.769V22.9313Z" fill="white"/>
<path d="M125.468 12.3394C124.054 12.3394 122.843 12.8355 122.035 13.6944L121.53 12.6256H118.884V22.9313H122.641V17.4349C122.641 16.1181 123.307 15.3547 124.479 15.3547C125.428 15.3547 125.913 15.9463 125.913 17.1486V22.9313H129.67V16.6525C129.67 14.0379 127.993 12.3394 125.468 12.3394Z" fill="white"/>
</svg>
