<svg width="30" height="31" viewBox="0 0 30 31" fill="none" xmlns="http://www.w3.org/2000/svg">
<g clip-path="url(#clip0_19_625)">
<path d="M15 0.331604C6.71625 0.331604 0 7.04785 0 15.3316C0 23.6154 6.71625 30.3316 15 30.3316C23.2837 30.3316 30 23.6154 30 15.3316C30 7.04785 23.2837 0.331604 15 0.331604ZM9.37 7.08535C10.4225 7.08535 11.1238 7.7866 11.1238 8.7216C11.1238 9.6566 10.4225 10.3579 9.25375 10.3579C8.20125 10.3591 7.5 9.6566 7.5 8.7216C7.5 7.7866 8.20125 7.08535 9.37 7.08535ZM11.25 21.5816H7.5V11.5816H11.25V21.5816ZM23.75 21.5816H20.22V16.1166C20.22 14.6054 19.2788 14.2566 18.9263 14.2566C18.5738 14.2566 17.3962 14.4891 17.3962 16.1166C17.3962 16.3491 17.3962 21.5816 17.3962 21.5816H13.75V11.5816H17.3975V12.9766C17.8675 12.1629 18.8087 11.5816 20.5737 11.5816C22.3387 11.5816 23.75 12.9766 23.75 16.1166V21.5816Z" fill="#F5F5F5"/>
</g>
<defs>
<clipPath id="clip0_19_625">
<rect width="30" height="30" fill="white" transform="translate(0 0.331604)"/>
</clipPath>
</defs>
</svg>
