<svg width="52" height="52" viewBox="0 0 52 52" fill="none" xmlns="http://www.w3.org/2000/svg">
<path d="M35.2727 0.831604V13.5092L28.3182 17.6384V10.6114L24.8409 12.7847L16.7273 17.6384V10.6114L13.25 12.7847L1.65909 19.7393L0.5 20.3913V51.8316H51.5V0.831604H35.2727ZM39.9091 5.46797H46.8636V47.1952H5.13636V22.9268L12.0909 18.7975V25.8245L15.5682 23.6512L23.6818 18.7975V25.8245L27.1591 23.6512L38.75 16.6967L39.9091 16.0447V5.46797ZM9.77273 28.6498V33.2861H14.4091V28.6498H9.77273ZM19.0455 28.6498V33.2861H23.6818V28.6498H19.0455ZM28.3182 28.6498V33.2861H32.9545V28.6498H28.3182ZM37.5909 28.6498V33.2861H42.2273V28.6498H37.5909ZM9.77273 37.9225V42.5589H14.4091V37.9225H9.77273ZM19.0455 37.9225V42.5589H23.6818V37.9225H19.0455ZM28.3182 37.9225V42.5589H32.9545V37.9225H28.3182ZM37.5909 37.9225V42.5589H42.2273V37.9225H37.5909Z" fill="#393939"/>
</svg>
