<svg width="30" height="31" viewBox="0 0 30 31" fill="none" xmlns="http://www.w3.org/2000/svg">
<path fill-rule="evenodd" clip-rule="evenodd" d="M15.0009 30.3321C8.9331 30.3321 3.46354 26.6772 1.14205 21.0717C-1.17944 15.4671 0.104015 9.01507 4.39421 4.72509C10.2518 -1.13287 19.749 -1.13287 25.6067 4.72499C31.4644 10.5828 31.4644 20.0803 25.6067 25.9382C22.8002 28.7607 18.9812 30.3429 15.0009 30.3321ZM15.0009 9.47809C14.9659 9.47809 11.48 9.47809 9.17708 9.64509L9.07008 9.65609C8.47918 9.67502 7.91904 9.92406 7.50912 10.3501C7.15447 10.8371 6.92694 11.4049 6.84714 12.0021C6.74344 12.8985 6.68769 13.7997 6.68015 14.7021V15.9651C6.68781 16.8658 6.74356 17.7654 6.84714 18.6601C6.92463 19.2553 7.14941 19.8217 7.50112 20.3081C7.93532 20.7247 8.50773 20.9668 9.10908 20.9881C9.19708 20.9981 9.27207 21.0081 9.33607 21.0191C10.648 21.1441 14.9539 21.1851 14.9969 21.1861C15.0399 21.1871 18.5158 21.1791 20.8248 21.0121L20.9318 21.0011C21.5224 20.9797 22.082 20.7311 22.4937 20.3071C22.8478 19.8199 23.075 19.2521 23.1547 18.6551C23.2582 17.7604 23.3139 16.8607 23.3217 15.9601V14.6991C23.3142 13.7968 23.2585 12.8955 23.1547 11.9991V11.9921C23.0769 11.3965 22.8491 10.8305 22.4927 10.3471C22.0808 9.92393 21.5219 9.67544 20.9318 9.65309L20.8258 9.64209C18.5258 9.47609 15.0369 9.47409 15.0019 9.47409L15.0009 9.47809ZM13.281 17.4911V12.8141L17.7808 15.1611L13.281 17.4911Z" fill="#F5F5F5"/>
</svg>
